<?xml version="1.0" standalone="no"?>
<!DOCTYPE svg PUBLIC "-//W3C//DTD SVG 20010904//EN"
 "http://www.w3.org/TR/2001/REC-SVG-20010904/DTD/svg10.dtd">
<svg version="1.0" xmlns="http://www.w3.org/2000/svg"
 width="1080.000000pt" height="1080.000000pt" viewBox="0 0 1080.000000 1080.000000"
 preserveAspectRatio="xMidYMid meet">
<metadata>
Created by potrace 1.11, written by Peter Selinger 2001-2013
</metadata>
<g transform="translate(0.000000,1080.000000) scale(0.100000,-0.100000)"
fill="#000000" stroke="none">
<path d="M4945 9975 c-710 -68 -1372 -262 -1969 -579 l-126 -67 0 -1300 0
-1301 63 35 c34 19 617 328 1296 687 l1233 653 62 -30 c33 -17 603 -317 1265
-667 662 -350 1205 -636 1207 -636 2 0 4 572 4 1270 l0 1270 -32 21 c-18 11
-121 64 -228 118 -561 280 -1095 437 -1765 517 -180 22 -817 28 -1010 9z"/>
<path d="M1407 8118 c-622 -759 -1006 -1652 -1122 -2612 -9 -71 -14 -130 -11
-133 2 -2 279 141 615 319 l611 323 0 1103 c0 606 -2 1102 -4 1102 -3 0 -43
-46 -89 -102z"/>
<path d="M9342 7113 l3 -1068 590 -312 c324 -171 591 -310 593 -308 5 5 -28
244 -54 385 -149 824 -497 1581 -1037 2258 -50 61 -92 112 -94 112 -2 0 -2
-480 -1 -1067z"/>
<path d="M4148 5902 l-1298 -687 0 -1827 0 -1828 2565 0 2565 0 -2 1847 -3
1847 -1095 578 c-602 319 -1171 619 -1265 668 l-170 89 -1297 -687z m2310
-1374 l-3 -283 -295 0 -295 0 -3 283 -2 282 300 0 300 0 -2 -282z m852 -3 l0
-285 -295 0 -295 0 0 285 0 285 295 0 295 0 0 -285z m-852 -797 l-3 -283 -295
0 -295 0 -3 283 -2 282 300 0 300 0 -2 -282z"/>
<path d="M9340 3075 c0 -936 3 -1454 10 -1450 5 3 36 38 68 78 408 501 720
1080 908 1687 48 152 117 424 129 502 l7 45 -489 258 c-268 142 -521 276 -560
297 l-73 40 0 -1457z"/>
<path d="M920 4190 l-565 -299 3 -38 c6 -66 91 -381 152 -563 201 -599 527
-1177 928 -1648 l62 -74 0 1461 c0 804 -3 1461 -7 1461 -5 0 -262 -135 -573
-300z"/>
</g>
</svg>
